<?xml version="1.0" encoding="UTF-8"?>
<svg width="198px" height="198px" viewBox="0 0 198 198" version="1.1" xmlns="http://www.w3.org/2000/svg" xmlns:xlink="http://www.w3.org/1999/xlink">
    <!-- Generator: Sketch 46.2 (44496) - http://www.bohemiancoding.com/sketch -->
    <title>logo</title>
    <desc>Created with Sketch.</desc>
    <defs></defs>
    <g id="Symbols" stroke="none" stroke-width="1" fill="none" fill-rule="evenodd">
        <g id="logo">
            <g id="Page-1">
                <polygon id="Fill-1" fill="#FF7900" points="0 198 198 198 198 0 0 0"></polygon>
                <g id="Group-16" transform="translate(10.000000, 143.000000)" fill="#FFFFFF">
                    <path d="M56.9633721,30.4642254 C56.9633721,32.3261972 58.1312791,34.0726761 60.2333721,34.0726761 C62.5084884,34.0726761 64.7263953,33.116338 66.942907,31.1480282 L66.942907,24.566338 C60.1747674,25.4170423 56.9633721,27.1705634 56.9633721,30.4642254 L56.9633721,30.4642254 Z M67.1187209,36.3057746 C64.3175581,38.1670423 61.2833721,39.0691549 58.0147674,39.0691549 C52.879186,39.0691549 49.842907,35.6184507 49.842907,30.9952113 C49.842907,24.7776056 55.5045349,21.481831 67.1766279,20.1543662 L67.1766279,18.6064789 C67.1766279,16.5853521 65.6598837,15.4156338 62.8566279,15.4156338 C60.0568605,15.4156338 57.7803488,16.5339437 56.147093,18.6064789 L51.2452326,15.7895775 C53.8133721,12.1747887 57.7224419,10.3677465 62.9766279,10.3677465 C70.1536047,10.3677465 74.1798837,13.5022535 74.1798837,18.6064789 C74.1798837,18.6064789 74.1694186,38.6973239 74.1868605,38.7501408 L67.7619767,38.7501408 L67.1187209,36.3057746 Z" id="Fill-2"></path>
                    <path d="M79.9082791,11.6915493 L85.902,10.856338 L86.5626977,14.1528169 C89.9464186,11.6535211 92.6317674,10.3239437 96.0168837,10.3239437 C101.678512,10.3239437 104.597581,13.3535211 104.597581,19.3605634 L104.597581,38.7070423 L97.357814,38.7070423 L97.357814,20.634507 C97.357814,17.2330986 96.4843256,15.6922535 93.8575814,15.6922535 C91.6975814,15.6922535 89.5389767,16.7014085 87.0873488,18.7767606 L87.0873488,38.7070423 L79.9082791,38.7070423 L79.9082791,11.6915493 Z" id="Fill-4"></path>
                    <path d="M158.000442,21.1683099 C158.000442,17.4464789 155.899744,15.2661972 152.454628,15.2661972 C149.188116,15.2661972 147.144628,17.3943662 146.853,21.1683099 L158.000442,21.1683099 Z M152.571837,39.2373239 C144.461372,39.2373239 139.616023,33.9760563 139.616023,24.8338028 C139.616023,15.584507 144.518581,10.3239437 152.454628,10.3239437 C160.39207,10.3239437 165.118814,15.4274648 165.118814,24.4647887 C165.118814,24.9415493 165.060209,25.4197183 165.060209,25.8978873 L146.736488,25.8978873 C146.794395,31.1598592 148.954395,33.8161972 153.216488,33.8161972 C155.956256,33.8161972 157.767419,32.7 159.459977,30.2570423 L164.768581,33.2309859 C162.43486,37.165493 158.234163,39.2373239 152.571837,39.2373239 L152.571837,39.2373239 Z" id="Fill-6"></path>
                    <path d="M13.8747907,16.3976056 C8.46781395,16.3976056 7.46734884,21.3201408 7.46734884,24.88 C7.46734884,28.4419718 8.46781395,33.3616901 13.8747907,33.3616901 C19.2831628,33.3616901 20.2850233,28.4419718 20.2850233,24.88 C20.2850233,21.3201408 19.2831628,16.3976056 13.8747907,16.3976056 M13.8747907,39.5412676 C6.71525581,39.5412676 0.257581395,34.9321127 0.257581395,24.88 C0.257581395,14.8257746 6.71525581,10.2187324 13.8747907,10.2187324 C21.0357209,10.2187324 27.4926977,14.8257746 27.4926977,24.88 C27.4926977,34.9321127 21.0357209,39.5412676 13.8747907,39.5412676" id="Fill-8"></path>
                    <path d="M32.4599302,10.9473944 L39.3466744,10.9473944 L39.3466744,14.2164085 C40.656907,12.4558451 43.899,10.3769718 46.933186,10.3769718 C47.224814,10.3769718 47.5736512,10.3769718 47.8666744,10.4297887 L47.8666744,17.2875352 L47.5171395,17.2875352 C44.3650465,17.2875352 40.9199302,17.7762676 39.8134186,20.249507 L39.8134186,38.7290845 L32.4599302,38.7290845 L32.4599302,10.9473944 Z" id="Fill-10"></path>
                    <path d="M135.247674,10.846338 L135.247674,37.1540845 C135.247674,41.7991549 134.898837,49.4385915 121.781163,49.5230986 C116.368605,49.5576056 111.355116,47.374507 110.350465,42.605493 L117.500233,41.4435211 C117.799535,42.8083099 118.627674,44.1709859 122.68186,44.1709859 C126.436744,44.1709859 128.238837,42.3540845 128.238837,38.0132394 L128.238837,34.7801408 L128.139767,34.6808451 C126.988605,36.7512676 125.236047,38.7188732 121.031163,38.7188732 C114.622326,38.7188732 109.564884,34.2280282 109.564884,24.8364789 C109.564884,15.5477465 114.77093,10.3491549 120.628605,10.3385915 C126.115116,10.3308451 128.158605,12.8561972 128.622558,14.1857746 L128.539535,14.1709859 L129.133256,10.846338 L135.247674,10.846338 Z M122.331628,32.761831 C127.829302,32.7202817 128.290465,27.0780282 128.290465,23.3921127 C128.290465,19.0526761 126.186977,15.5174648 122.282093,15.5174648 C119.677674,15.5174648 116.774651,17.4350704 116.774651,23.6942254 C116.774651,27.1280282 117.015349,32.8033803 122.331628,32.761831 L122.331628,32.761831 Z" id="Fill-12"></path>
                    <path d="M179.819791,9.59190141 L178.317,9.59190141 L178.317,1.92711268 L178.270953,1.92711268 L175.291884,9.59190141 L174.342349,9.59190141 L171.363977,1.92711268 L171.318628,1.92711268 L171.318628,9.59190141 L169.818628,9.59190141 L169.818628,0.413028169 L172.135605,0.413028169 L174.850953,7.38485915 L177.520953,0.413028169 L179.819791,0.413028169 L179.819791,9.59190141 Z M167.963512,1.63697183 L165.115605,1.63697183 L165.115605,9.59190141 L163.614209,9.59190141 L163.614209,1.63697183 L160.767698,1.63697183 L160.767698,0.413028169 L167.963512,0.413028169 L167.963512,1.63697183 Z" id="Fill-14"></path>
                </g>
            </g>
        </g>
    </g>
</svg>