<svg xmlns="http://www.w3.org/2000/svg" width="408" height="86" viewBox="0 0 408 86">
  <defs>
    <linearGradient id="windlogobeta_large-a" x1="366.397%" x2="-297.298%" y1="165.673%" y2="-79.545%">
      <stop offset="2.372%" stop-color="#0063FF"/>
      <stop offset="33.5%" stop-color="#0098FF"/>
      <stop offset="71.5%" stop-color="#00D4FF"/>
      <stop offset="89.7%" stop-color="#00EBFF"/>
    </linearGradient>
    <linearGradient id="windlogobeta_large-b" x1="3238.463%" x2="-3232.563%" y1="267.198%" y2="-173.904%">
      <stop offset="2.372%" stop-color="#0063FF"/>
      <stop offset="33.5%" stop-color="#0098FF"/>
      <stop offset="71.5%" stop-color="#00D4FF"/>
      <stop offset="89.7%" stop-color="#00EBFF"/>
    </linearGradient>
    <linearGradient id="windlogobeta_large-c" x1="643.113%" x2="-521.317%" y1="493.361%" y2="-392.148%">
      <stop offset="2.372%" stop-color="#0063FF"/>
      <stop offset="33.5%" stop-color="#0098FF"/>
      <stop offset="71.5%" stop-color="#00D4FF"/>
      <stop offset="89.7%" stop-color="#00EBFF"/>
    </linearGradient>
    <linearGradient id="windlogobeta_large-d" x1="3203.147%" x2="-3619.637%" y1="459.219%" y2="-426.29%">
      <stop offset="2.372%" stop-color="#0063FF"/>
      <stop offset="33.5%" stop-color="#0098FF"/>
      <stop offset="71.5%" stop-color="#00D4FF"/>
      <stop offset="89.7%" stop-color="#00EBFF"/>
    </linearGradient>
    <linearGradient id="windlogobeta_large-e" x1="804.23%" x2="-963.801%" y1="426.423%" y2="-456.183%">
      <stop offset="2.372%" stop-color="#0063FF"/>
      <stop offset="33.5%" stop-color="#0098FF"/>
      <stop offset="71.5%" stop-color="#00D4FF"/>
      <stop offset="89.7%" stop-color="#00EBFF"/>
    </linearGradient>
    <linearGradient id="windlogobeta_large-f" x1="678.923%" x2="-1015.094%" y1="387.112%" y2="-498.397%">
      <stop offset="2.372%" stop-color="#0063FF"/>
      <stop offset="33.5%" stop-color="#0098FF"/>
      <stop offset="71.5%" stop-color="#00D4FF"/>
      <stop offset="89.7%" stop-color="#00EBFF"/>
    </linearGradient>
  </defs>
  <g fill="none" transform="translate(0 18)">
    <g transform="translate(162)">
      <rect width="3.589" height="66.831" x=".422" y=".744" fill="#FFF"/>
      <g fill="#FFF" transform="translate(29.556 17)">
        <polygon points=".95 .956 4.961 .956 16.361 28.794 27.867 .956 31.772 .956 17.945 33.469 14.778 33.469"/>
        <polygon points="44.545 .956 48.134 .956 48.134 33.256 44.545 33.256"/>
        <path d="M61.5392763,28.58125 L63.7559569,25.925 C67.133756,29.00625 70.3004426,30.49375 74.7338038,30.49375 C79.0616089,30.49375 81.9116268,28.15625 81.9116268,24.96875 L81.9116268,24.8625 C81.9116268,21.8875 80.3282835,20.1875 73.5726854,18.7 C66.18375,17.10625 62.805951,14.6625 62.805951,9.35 L62.805951,9.24375 C62.805951,4.25 67.2393122,0.425 73.361573,0.425 C78.1116029,0.425 81.3838457,1.80625 84.6560885,4.35625 L82.5449641,7.225 C79.58939,4.78125 76.6338158,3.71875 73.2560167,3.71875 C69.0337679,3.71875 66.3948624,5.95 66.3948624,8.925 L66.3948624,9.03125 C66.3948624,12.1125 67.9782057,13.8125 75.1560287,15.3 C82.3338517,16.7875 85.6060945,19.55 85.6060945,24.4375 L85.6060945,24.54375 C85.6060945,30.06875 81.067177,33.68125 74.6282476,33.68125 C69.561549,33.68125 65.4448565,32.0875 61.5392763,28.58125 Z"/>
        <polygon points="99.434 .956 103.023 .956 103.023 33.256 99.434 33.256"/>
        <polygon points="163.823 .956 167.201 .956 187.468 26.881 187.468 .956 190.951 .956 190.951 33.256 188.101 33.256 167.412 6.8 167.412 33.256 163.929 33.256 163.929 .956"/>
      </g>
      <g transform="translate(146.723 13.813)">
        <path fill="url(#windlogobeta_large-a)" d="M23.1168122,5.1 L22.2723624,4.675 L21.0056878,7.75625 L21.8501376,8.18125 C26.7057237,10.2 29.8724103,15.0875 29.8724103,20.4 C29.8724103,27.73125 23.961262,33.575 16.783439,33.575 C9.60561603,33.575 3.6944677,27.625 3.6944677,20.4 C3.6944677,15.0875 6.86115431,10.30625 11.7167404,8.18125 L12.5611902,7.75625 L11.2945156,4.675 L10.4500658,5.1 C4.32780502,7.65 0.31666866,13.70625 0.31666866,20.4 C0.31666866,29.5375 7.70560407,36.975 16.783439,36.975 C25.8612739,36.975 33.2502093,29.5375 33.2502093,20.4 C33.2502093,13.70625 29.239073,7.75625 23.1168122,5.1 Z"/>
        <rect width="3.378" height="17.956" x="15.095" y=".425" fill="url(#windlogobeta_large-b)"/>
      </g>
    </g>
    <g transform="translate(0 18)">
      <path fill="url(#windlogobeta_large-c)" d="M46.9723077,0.928125 L42.6830769,0.928125 C41.6369231,0.928125 40.5907692,1.753125 40.2769231,2.68125 L34.6276923,20.83125 L28.9784615,6.496875 C28.6646154,5.56875 27.5138462,4.74375 26.4676923,4.74375 L22.5969231,4.74375 C21.5507692,4.74375 20.4,5.56875 20.0861538,6.496875 L14.3323077,20.83125 L8.78769231,2.68125 C8.47384615,1.65 7.42769231,0.928125 6.38153846,0.928125 L1.98769231,0.928125 C0.941538462,0.928125 0.313846154,1.753125 0.732307692,2.68125 L9.41538462,30.525 C9.72923077,31.453125 10.7753846,32.278125 11.8215385,32.278125 L16.32,32.278125 C17.3661538,32.278125 18.4123077,31.453125 18.8307692,30.525 L24.48,14.85 C24.5846154,14.85 24.7938462,15.675 25.2123077,16.603125 L30.2338462,30.525 C30.5476923,31.453125 31.6984615,32.278125 32.7446154,32.278125 L37.0338462,32.278125 C38.08,32.278125 39.1261538,31.453125 39.44,30.525 L48.3323077,2.68125 C48.6461538,1.65 48.0184615,0.928125 46.9723077,0.928125 Z"/>
      <path fill="url(#windlogobeta_large-d)" d="M58.48,0.928125 L54.0861538,0.928125 C53.04,0.928125 52.2030769,1.753125 52.2030769,2.784375 L52.2030769,30.421875 C52.2030769,31.453125 53.04,32.278125 54.0861538,32.278125 L58.48,32.278125 C59.4215385,32.278125 60.3630769,31.453125 60.3630769,30.421875 L60.3630769,2.784375 C60.3630769,1.753125 59.5261538,0.928125 58.48,0.928125 Z"/>
      <path fill="url(#windlogobeta_large-e)" d="M94.9907692,0.928125 L91.0153846,0.928125 C89.9692308,0.928125 89.1323077,1.753125 89.1323077,2.784375 L89.1323077,21.965625 L74.5907692,2.371875 C73.9630769,1.546875 72.6030769,0.928125 71.6615385,0.928125 L67.2676923,0.928125 C66.2215385,0.928125 65.3846154,1.753125 65.3846154,2.784375 L65.3846154,30.421875 C65.3846154,31.453125 66.2215385,32.278125 67.2676923,32.278125 L71.2430769,32.278125 C72.2892308,32.278125 73.1261538,31.453125 73.1261538,30.421875 L73.1261538,13.096875 C73.1261538,12.065625 73.1261538,11.240625 73.1261538,11.240625 C73.1261538,11.240625 73.6492308,11.9625 74.2769231,12.7875 L87.5630769,30.834375 C88.1907692,31.659375 89.5507692,32.38125 90.4923077,32.38125 L94.9907692,32.38125 C96.0369231,32.38125 96.8738462,31.55625 96.8738462,30.525 L96.8738462,2.8875 C96.7692308,1.753125 95.9323077,0.928125 94.9907692,0.928125 Z"/>
      <path fill="url(#windlogobeta_large-f)" d="M133.803077,9.590625 C132.966154,7.63125 131.815385,6.084375 130.246154,4.74375 C128.781538,3.50625 127.003077,2.475 124.910769,1.85625 C122.818462,1.2375 120.621538,0.825 118.215385,0.825 L103.987692,0.825 C102.941538,0.825 102.104615,1.65 102.104615,2.68125 L102.104615,30.31875 C102.104615,31.35 102.941538,32.175 103.987692,32.175 L116.227692,32.175 C117.273846,32.175 118.947692,32.071875 119.993846,31.96875 C119.993846,31.96875 123.446154,31.7625 125.538462,30.9375 C127.630769,30.1125 129.409231,29.08125 130.769231,27.6375 C132.233846,26.19375 133.28,24.54375 133.907692,22.584375 C134.64,20.625 134.953846,18.5625 134.953846,16.29375 C135.058462,13.81875 134.64,11.55 133.803077,9.590625 Z M123.864615,23.615625 C123.027692,24.3375 121.981538,24.75 120.935385,25.059375 C119.889231,25.36875 118.738462,25.471875 117.587692,25.471875 L112.252308,25.471875 C111.310769,25.471875 110.369231,24.75 110.369231,23.821875 L110.369231,9.4875 C110.369231,8.559375 111.206154,7.8375 112.252308,7.8375 L114.344615,7.8375 C115.390769,7.8375 116.96,7.8375 118.006154,7.940625 C118.006154,7.940625 119.784615,8.04375 121.144615,8.45625 C122.504615,8.86875 123.550769,9.4875 124.387692,10.3125 C125.224615,11.1375 125.747692,12.065625 126.166154,13.2 C126.48,14.334375 126.689231,15.571875 126.689231,17.015625 C126.689231,18.5625 126.48,19.903125 125.956923,20.934375 C125.329231,22.06875 124.596923,22.89375 123.864615,23.615625 Z"/>
    </g>
  </g>
</svg>
